<svg width="1920" height="480" viewBox="0 0 1920 480" fill="none" xmlns="http://www.w3.org/2000/svg">
<mask id="mask0_95_271" style="mask-type:alpha" maskUnits="userSpaceOnUse" x="0" y="0" width="1920" height="480">
<rect width="1920" height="480" fill="#D9D9D9"/>
</mask>
<g mask="url(#mask0_95_271)">
<path d="M2183 -620.117C2183 -25.5764 1622.15 457.383 929 457.383C235.846 457.383 -325 -25.5764 -325 -620.117C-325 -1214.66 235.846 -1697.62 929 -1697.62C1622.15 -1697.62 2183 -1214.66 2183 -620.117Z" stroke="white" stroke-width="8"/>
<circle cx="1125" cy="263" r="75" fill="#EADEF0"/>
<circle cx="1172.5" cy="271.5" r="13.5" fill="#320A00"/>
<ellipse cx="1141.5" cy="285" rx="9.5" ry="6" fill="#320A00"/>
<ellipse cx="1138.5" cy="221" rx="9.5" ry="6" fill="#320A00"/>
<ellipse cx="1082.5" cy="249" rx="9.5" ry="15" fill="#320A00"/>
<g clip-path="url(#clip0_95_271)">
<rect x="1667" y="349.895" width="68.5143" height="110" rx="34.2571" fill="#D3E7FD"/>
<path d="M1686.49 411.809C1686.49 403.651 1693.1 397.038 1701.26 397.038V397.038C1709.42 397.038 1716.03 403.651 1716.03 411.809V423.438H1686.49V411.809Z" fill="#08665C"/>
<rect x="1667" y="420.923" width="68.5143" height="38.9714" fill="#F5A290"/>
<circle cx="1701.57" cy="389.495" r="10.0571" fill="#08665C"/>
<circle cx="1687.11" cy="379.437" r="1.88571" fill="#08665C"/>
<circle cx="1716.03" cy="379.437" r="1.88571" fill="#08665C"/>
<rect x="1687.11" y="380.326" width="1.25714" height="9.42857" transform="rotate(-45 1687.11 380.326)" fill="#08665C"/>
<rect x="1715.15" y="379.438" width="1.25714" height="9.42857" transform="rotate(45 1715.15 379.438)" fill="#08665C"/>
</g>
</g>
<path d="M16.6664 113.079C25.7884 101.683 42.4219 99.8387 53.8184 108.961L134.751 173.741C146.148 182.863 147.992 199.497 138.87 210.893V210.893C134.309 216.591 125.992 217.513 120.294 212.952L18.7255 131.655C13.0273 127.094 12.1054 118.777 16.6664 113.079V113.079Z" fill="#13FFE7"/>
<path fill-rule="evenodd" clip-rule="evenodd" d="M16.74 112.988C16.704 113.032 16.6681 113.077 16.6323 113.122C12.0713 118.82 12.9932 127.137 18.6915 131.698L120.26 212.995C125.958 217.556 134.275 216.634 138.836 210.936C138.871 210.891 138.907 210.846 138.942 210.801L119.447 195.197C116.672 192.975 116.223 188.925 118.444 186.15C120.665 183.375 124.716 182.926 127.491 185.147L144.303 198.604C145.751 189.522 142.41 179.941 134.717 173.784L53.7844 109.003C46.0913 102.845 36.0117 101.685 27.4673 105.086L45.0838 119.187C47.8589 121.408 48.3079 125.458 46.0867 128.234C43.8654 131.009 39.815 131.458 37.0399 129.236L16.74 112.988ZM52.5184 133.382C54.7396 130.607 58.79 130.158 61.5651 132.379L111.009 171.955C113.784 174.176 114.233 178.227 112.012 181.002C109.791 183.777 105.74 184.226 102.965 182.005L53.5212 142.428C50.7461 140.207 50.2971 136.157 52.5184 133.382Z" fill="#011542"/>
<defs>
<clipPath id="clip0_95_271">
<rect x="1667" y="349.895" width="68.5143" height="110" rx="34.2571" fill="white"/>
</clipPath>
</defs>
</svg>
