<svg width="175" height="48" viewBox="0 0 175 48" fill="none" xmlns="http://www.w3.org/2000/svg">
<path fill-rule="evenodd" clip-rule="evenodd" d="M41.8132 24.8157C41.5057 31.2667 37.2911 37.1224 30.8761 39.1169C24.4312 41.1207 17.6906 38.6287 13.9065 33.4034C13.6646 33.4481 13.4243 33.4916 13.1858 33.5338C10.5677 33.9969 8.09092 34.3177 6.17809 34.3466C5.23725 34.3609 4.30757 34.3079 3.52751 34.1068C2.88812 33.9419 1.59155 33.4811 1.17272 32.0843C0.904202 31.1888 1.11964 30.3715 1.41347 29.785C1.69837 29.2164 2.11488 28.7361 2.51787 28.3482C3.32813 27.5681 4.43632 26.8297 5.56258 26.178C7.25227 25.2003 9.22332 24.2816 10.8937 23.5796C11.0867 17.0148 15.331 11.0129 21.8419 8.98854C28.444 6.93587 35.3564 9.60093 39.0831 15.0892C40.9368 14.7267 43.4639 14.3269 45.6987 14.1814C46.9351 14.1009 48.1915 14.0901 49.2249 14.2477C49.7352 14.3256 50.3102 14.4611 50.8308 14.7264C51.3485 14.9902 52.0413 15.5065 52.3216 16.4413C52.5466 17.1916 52.3738 17.8639 52.166 18.3147C51.9639 18.7529 51.6745 19.1105 51.4153 19.383C50.8944 19.9308 50.1826 20.4567 49.4243 20.9451C47.8808 21.9392 45.7353 23.0352 43.3874 24.1106C42.8744 24.3455 42.3485 24.581 41.8132 24.8157ZM38.2003 26.3336C37.3915 30.6671 34.3083 34.4093 29.8776 35.7869C25.4217 37.1723 20.7843 35.7988 17.7368 32.6263C21.7294 31.7511 25.7651 30.6788 28.7347 29.7556C31.431 28.9172 34.8439 27.6873 38.2003 26.3336ZM38.2437 22.0261C34.5272 23.5762 30.582 25.0207 27.5935 25.9499C24.3369 26.9624 19.7189 28.1689 15.361 29.0668C15.1595 28.607 14.9835 28.1295 14.8354 27.6356C12.8922 21.155 16.4761 14.2973 22.8405 12.3185C29.2048 10.3398 35.9394 13.9892 37.8826 20.4699C38.0377 20.9871 38.1576 21.5068 38.2437 22.0261ZM40.9383 18.7898C42.5009 18.5158 44.3315 18.2577 45.948 18.1525C46.1183 18.1414 46.2838 18.1322 46.4443 18.1248C45.2055 18.8434 43.6032 19.6486 41.7844 20.4817C41.6763 20.5312 41.5676 20.5807 41.4583 20.6303C41.3719 20.2373 41.2703 19.8446 41.1528 19.4531C41.0857 19.2293 41.0142 19.0082 40.9383 18.7898ZM11.3156 27.7202C10.0348 28.2903 8.67231 28.9553 7.49325 29.6376C7.05849 29.8891 6.66743 30.1325 6.32531 30.3635C7.78293 30.3235 9.72144 30.0894 11.9247 29.7159C11.7936 29.3685 11.6736 29.0138 11.5652 28.6524C11.4722 28.3422 11.3891 28.0314 11.3156 27.7202ZM4.34067 30.2008C4.34243 30.2 4.36047 30.2061 4.38948 30.2212C4.35341 30.2091 4.3389 30.2015 4.34067 30.2008Z" fill="#AEFFF7"/>
<path fill-rule="evenodd" clip-rule="evenodd" d="M77.4149 8.4919C76.2991 8.83454 76.2355 9.33716 75.9581 20.0059L75.7872 26.5813L75.1164 27.1645C74.4462 27.7471 72.2413 29.0133 71.897 29.0133C71.7886 29.0133 71.8259 28.7271 71.9897 28.3053C72.5662 26.8204 71.9705 25.415 69.3871 22.1652C67.2597 19.4889 67.369 19.7348 67.5737 18.0834C67.7696 16.5022 67.6065 15.37 67.1322 15.019C66.6589 14.6686 65.3721 14.5418 64.6703 14.7762C63.6427 15.1194 63.3187 15.6993 63.3199 17.1929C63.3205 17.8978 63.4043 18.7787 63.5063 19.1504C63.6748 19.7638 63.6263 19.9675 62.9836 21.3554C61.8831 23.7319 59.7551 26.8899 57.2825 29.8162C56.3001 30.9789 56.1365 31.65 56.6537 32.397C56.9781 32.8658 57.8091 33.3369 58.3117 33.3369C58.8324 33.3369 59.6666 32.5491 61.1736 30.6346C62.7024 28.6925 63.8563 26.9787 64.9868 24.9715L65.7653 23.5894L66.656 24.7251C68.1219 26.5939 68.6597 27.5642 68.6597 28.3399C68.6597 29.2434 68.4416 29.6323 67.7794 29.9099C67.0494 30.2158 66.1686 30.0189 65.3605 29.3689C64.5031 28.6795 64.133 28.6939 63.3901 29.4457C62.7524 30.091 62.6433 30.6267 63.0136 31.2951C64.3393 33.6874 70.0448 33.6202 74.4901 31.1596L75.7808 30.4451V30.996C75.7808 31.8497 76.2401 32.7766 76.763 32.9777C77.5522 33.2814 78.8981 33.1958 79.3661 32.8125C79.7861 32.4684 79.7866 32.4626 79.9296 26.7357C80.0888 20.364 80.014 20.7141 81.3885 19.9144C82.3045 19.3815 83.3899 19.212 83.9701 19.5112C84.9363 20.0093 85.0376 20.5771 85.039 25.5004C85.0404 30.2998 85.1373 31.0539 85.8804 32.0499C86.491 32.8683 87.2656 33.1567 88.8536 33.1567C90.5009 33.1567 91.6118 32.7472 93.263 31.5316C94.2998 30.7683 94.469 30.6961 94.5576 30.9782C94.772 31.662 95.9573 32.6237 96.9432 32.9137C98.734 33.4405 100.65 32.9559 102.132 31.6015C102.842 30.9517 102.905 30.9285 103.089 31.245C103.446 31.8584 104.12 32.6211 104.474 32.8132C105.08 33.1416 106.541 33.2884 107.572 33.1248C108.8 32.9299 110.329 32.1654 111.381 31.2199L112.178 30.5046L112.934 31.3558C113.964 32.5147 115.192 33.0526 116.816 33.0551C118.378 33.0576 119.644 32.6294 120.65 31.7586C121.177 31.3019 121.443 31.1681 121.497 31.3318C121.648 31.7908 122.605 32.7539 123.128 32.9732C123.454 33.1099 124.219 33.1686 125.132 33.1268C126.881 33.0467 128.037 32.5738 129.567 31.3125L130.567 30.4891L131.209 31.2675C132.128 32.3796 133.538 33.0366 135.041 33.0535C136.745 33.0726 137.417 32.8775 138.694 31.9926L139.831 31.2054L140.251 31.8496C140.943 32.9083 141.654 33.1848 143.52 33.1212C144.883 33.0748 145.282 32.9856 146.183 32.5262C146.766 32.229 147.683 31.5734 148.219 31.0693L149.195 30.1529L149.756 30.9793C151.808 34.002 156.433 34.0454 159.771 31.0733L160.712 30.2362L161.602 31.0785C162.738 32.1542 164.042 32.7545 165.703 32.967C168.161 33.2814 170.595 32.7146 172.466 31.3924C173.482 30.6737 173.82 30.0758 173.633 29.3228C173.48 28.7065 172.67 27.7523 172.3 27.7523C172.137 27.7523 171.614 28.0328 171.138 28.3754C169.986 29.2041 168.782 29.5858 167.327 29.584C165.996 29.5824 165.267 29.363 164.645 28.7761C163.749 27.9308 163.786 27.8409 165.367 26.9991C167.209 26.0189 168.982 24.3039 169.696 22.8128C170.108 21.9531 170.221 21.4384 170.282 20.1572C170.35 18.7123 170.313 18.4781 169.877 17.5753C169.074 15.9147 167.381 15.174 165.175 15.5188C163.738 15.7432 162.827 16.2156 161.774 17.281C160.034 19.041 159.187 21.7586 159.323 25.1401C159.401 27.1007 159.397 27.1288 158.894 27.7789C158.018 28.9101 156.769 29.59 155.383 29.6903C153.772 29.807 153.166 29.4918 152.588 28.236C152.352 27.7222 152.157 27.1529 152.157 26.9708C152.156 26.7887 152.68 25.978 153.323 25.1693C154.711 23.4206 155.936 21.003 156.441 19.0151C156.969 16.9364 157.107 13.1001 156.711 11.5389C156.322 10.0062 155.744 9.15052 154.781 8.67835C153.355 7.97974 151.685 8.25699 150.465 9.39498C148.986 10.7744 148.337 13.3091 148.07 18.7449C147.965 20.8789 147.96 23.1372 148.056 24.4984C148.234 27.0119 148.232 27.02 146.873 28.3109C145.819 29.3131 145.372 29.5538 144.566 29.5538C143.892 29.5538 143.804 29.5008 143.627 28.9865C143.4 28.3269 143.384 20.8521 143.595 13.9709C143.671 11.4939 143.671 9.29482 143.595 9.08405C143.201 7.98947 140.129 8.10764 139.717 9.23339C139.634 9.4611 139.519 11.0134 139.463 12.6832C139.406 14.3528 139.326 15.7537 139.284 15.7962C139.242 15.8387 138.642 15.7847 137.951 15.676C134.886 15.195 131.868 16.7443 130.564 19.4678C129.787 21.0886 129.545 22.3803 129.545 24.9014V27.1992L128.967 27.8678C127.711 29.3185 125.726 30.0602 125.299 29.2385C124.932 28.532 124.892 26.2729 125.103 18.1421C125.225 13.4503 125.273 9.40291 125.21 9.148C124.973 8.19213 122.451 8.00352 121.594 8.8776C121.218 9.26149 121.185 9.49226 121.069 12.5748C121.001 14.3829 120.913 15.8625 120.873 15.8625C120.834 15.8625 120.259 15.7775 119.596 15.6733C115.8 15.0772 112.595 17.2894 111.441 21.3021C111.264 21.9166 111.152 23.1452 111.127 24.744L111.088 27.2302L110.214 28.1364C109.294 29.0886 108.263 29.7339 107.659 29.7339C107.462 29.7339 107.165 29.5258 107.001 29.2715C106.728 28.8508 106.715 28.3318 106.85 23.5518C107.07 15.8016 107.09 16.4244 106.604 16.0266C105.962 15.5004 104.092 15.5404 103.456 16.094C103.003 16.4885 102.977 16.6096 102.832 19.0214C102.749 20.4051 102.677 23.0128 102.672 24.8162L102.663 28.0953L101.822 28.6808C101.182 29.1264 100.743 29.2839 99.9848 29.3394C97.8561 29.495 97.586 28.5413 97.7253 21.357C97.7733 18.88 97.7489 16.6836 97.6713 16.4761C97.4639 15.9218 96.5868 15.6247 95.4415 15.7209C93.6806 15.8686 93.7326 15.694 93.624 21.8187L93.5308 27.0899L92.8895 27.811C91.8589 28.9699 90.9515 29.5538 90.1806 29.5538C89.0927 29.5538 89.0594 29.3864 89.111 24.1909C89.1619 19.0551 89.0272 18.17 88.0154 17.0043C86.3706 15.1086 83.0789 15.1714 80.8623 17.1408L80.174 17.7524L80.2995 13.5838L80.425 9.41534L80.0166 8.94461C79.5449 8.40038 78.3754 8.197 77.4149 8.4919ZM153.659 12.3244C153.9 13.5272 153.917 14.1518 153.757 15.8625C153.552 18.0482 153.108 19.7602 152.339 21.33L151.796 22.4379L151.883 18.4746C151.976 14.2889 152.238 12.3665 152.771 11.972C153.168 11.6784 153.561 11.8342 153.659 12.3244ZM166.598 19.2233C166.957 19.6618 166.852 21.127 166.392 22.0875C166.003 22.9018 164.773 24.0524 163.681 24.6236L163.16 24.8964L163.278 23.4869C163.451 21.4305 163.83 20.2255 164.524 19.5231C165.196 18.8432 166.171 18.7023 166.598 19.2233ZM120.787 19.3939C120.855 19.4827 120.871 21.5822 120.822 24.0592L120.733 28.5629L119.754 29.0715C118.088 29.9366 116.507 29.5381 115.785 28.0711C115.319 27.123 115.077 25.3358 115.2 23.758C115.386 21.3986 116.001 20.1464 117.304 19.4737C117.934 19.1489 118.284 19.0952 119.363 19.1574C120.078 19.1987 120.719 19.3051 120.787 19.3939ZM138.88 19.2808L139.337 19.4564L139.336 23.9196L139.334 28.3828L138.757 28.7685C137.333 29.7197 135.683 29.755 134.731 28.8542C133.895 28.0648 133.582 26.6744 133.676 24.1655C133.735 22.568 133.839 21.8823 134.121 21.2462C134.497 20.3963 135.457 19.4678 136.176 19.2583C136.806 19.0742 138.377 19.0873 138.88 19.2808Z" fill="white"/>
</svg>
